<svg width="1024" height="1024" viewBox="0 0 1024 1024" fill="none" xmlns="http://www.w3.org/2000/svg">
<path d="M256 230.4C256 194.557 256 176.635 262.976 162.945C269.111 150.902 278.902 141.111 290.945 134.976C304.635 128 322.557 128 358.4 128H665.6C701.443 128 719.365 128 733.055 134.976C745.098 141.111 754.889 150.902 761.024 162.945C768 176.635 768 194.557 768 230.4V793.6C768 829.443 768 847.365 761.024 861.055C754.889 873.098 745.098 882.889 733.055 889.024C719.365 896 701.443 896 665.6 896H358.4C322.557 896 304.635 896 290.945 889.024C278.902 882.889 269.111 873.098 262.976 861.055C256 847.365 256 829.443 256 793.6V230.4Z" fill="#F2F2F2"/>
</svg>
