<svg width="1024" height="1024" viewBox="0 0 1024 1024" fill="none" xmlns="http://www.w3.org/2000/svg">
<path d="M286 238C286 209.997 286 195.996 291.45 185.3C296.243 175.892 303.892 168.243 313.3 163.45C323.996 158 337.997 158 366 158H658C686.003 158 700.004 158 710.7 163.45C720.108 168.243 727.757 175.892 732.55 185.3C738 195.996 738 209.997 738 238V786C738 814.003 738 828.004 732.55 838.7C727.757 848.108 720.108 855.757 710.7 860.55C700.004 866 686.003 866 658 866H366C337.997 866 323.996 866 313.3 860.55C303.892 855.757 296.243 848.108 291.45 838.7C286 828.004 286 814.003 286 786V238Z" fill="#5BCEFA"/>
</svg>
